<svg xmlns="http://www.w3.org/2000/svg" width="800" height="800" viewBox="0 0 800 800">
<!-- Baan Rao menu placeholder (vegetables): gold line drawing, NOT a real photo. Swap for a real photo (see README). -->
<defs>
<radialGradient id="bg" cx="50%" cy="42%" r="75%"><stop offset="0" stop-color="#3d2e19"/><stop offset=".55" stop-color="#241b10"/><stop offset="1" stop-color="#120e09"/></radialGradient>
<radialGradient id="glow" cx="50%" cy="50%" r="50%"><stop offset="0" stop-color="#e9b949" stop-opacity=".22"/><stop offset="1" stop-color="#e9b949" stop-opacity="0"/></radialGradient>
<linearGradient id="fill" x1="0" y1="0" x2="0" y2="1"><stop offset="0" stop-color="#f6d77e" stop-opacity=".22"/><stop offset="1" stop-color="#e9b949" stop-opacity=".06"/></linearGradient>
<filter id="soft" x="-20%" y="-20%" width="140%" height="140%"><feGaussianBlur stdDeviation="2.2" result="b"/><feMerge><feMergeNode in="b"/><feMergeNode in="SourceGraphic"/></feMerge></filter>
<pattern id="dots" width="28" height="28" patternUnits="userSpaceOnUse"><circle cx="14" cy="14" r="1.3" fill="#e9b949" fill-opacity=".09"/></pattern>
</defs>
<rect width="800" height="800" fill="url(#bg)"/>
<rect width="800" height="800" fill="url(#dots)"/>
<ellipse cx="400" cy="420" rx="330" ry="250" fill="url(#glow)"/>
<g fill="none" stroke="#e9b949" stroke-opacity=".10" stroke-width="2"><circle cx="400" cy="400" r="350"/><circle cx="400" cy="400" r="372"/></g>
<g filter="url(#soft)">
 <ellipse cx="400" cy="520" rx="300" ry="112" fill="url(#fill)" stroke="#f6d77e" stroke-width="7"/>
 <ellipse cx="400" cy="520" rx="250" ry="86" fill="none" stroke="#f6d77e" stroke-width="4.5" stroke-linecap="round" stroke-linejoin="round" stroke-opacity=".4"/>
 <!-- cabbage head -->
 <g transform="translate(285 420)">
  <circle r="104" fill="#f6d77e" fill-opacity=".13" stroke="#f6d77e" stroke-width="6" stroke-linejoin="round"/>
  <g fill="none" stroke="#f6d77e" stroke-width="4.5" stroke-linecap="round" stroke-linejoin="round" stroke-opacity=".85"><path d="M-70 60c-30-60-10-128 50-146"/><path d="M70 64c34-56 18-126-40-150"/><path d="M-30 96c-20-50-10-110 30-150"/><path d="M0 104c-6-60 0-120 0-190"/><path d="M0 40c22-14 40-30 50-54M0 -10c-22-12-38-28-46-50"/></g>
 </g>
 <!-- morning glory bunch -->
 <g fill="none" stroke="#f6d77e" stroke-width="7" stroke-linecap="round" stroke-linejoin="round"><path d="M470 560c30-90 70-170 130-250"/><path d="M500 566c26-80 56-150 106-210"/><path d="M450 556c22-70 40-130 80-190"/></g>
 <path transform="translate(606 312) rotate(30) scale(1.3)" d="M0 0c-26-18-30-52-10-78 8 26 34 40 34 62 0 12-10 18-24 16z" fill="#f6d77e" fill-opacity=".13" stroke="#f6d77e" stroke-width="6" stroke-linejoin="round"/><path transform="translate(612 360) rotate(70) scale(1.1)" d="M0 0c-26-18-30-52-10-78 8 26 34 40 34 62 0 12-10 18-24 16z" fill="#f6d77e" fill-opacity=".13" stroke="#f6d77e" stroke-width="6" stroke-linejoin="round"/><path transform="translate(530 372) rotate(-20) scale(1.1)" d="M0 0c-26-18-30-52-10-78 8 26 34 40 34 62 0 12-10 18-24 16z" fill="#f6d77e" fill-opacity=".13" stroke="#f6d77e" stroke-width="6" stroke-linejoin="round"/><path transform="translate(560 430) rotate(60) scale(1)" d="M0 0c-26-18-30-52-10-78 8 26 34 40 34 62 0 12-10 18-24 16z" fill="#f6d77e" fill-opacity=".13" stroke="#f6d77e" stroke-width="6" stroke-linejoin="round"/><path transform="translate(500 440) rotate(-30) scale(1)" d="M0 0c-26-18-30-52-10-78 8 26 34 40 34 62 0 12-10 18-24 16z" fill="#f6d77e" fill-opacity=".13" stroke="#f6d77e" stroke-width="6" stroke-linejoin="round"/>
 <!-- mushrooms -->
 <g transform="translate(410 560)"><path d="M-58 0c0-38 26-60 58-60s58 22 58 60z" fill="#f6d77e" fill-opacity=".13" stroke="#f6d77e" stroke-width="6" stroke-linejoin="round"/><path fill="none" stroke="#f6d77e" stroke-width="7" stroke-linecap="round" stroke-linejoin="round" d="M-18 0v34h36V0"/></g>
 <g transform="translate(520 586) scale(.72)"><path d="M-58 0c0-38 26-60 58-60s58 22 58 60z" fill="#f6d77e" fill-opacity=".13" stroke="#f6d77e" stroke-width="8.5" stroke-linejoin="round"/><path fill="none" stroke="#f6d77e" stroke-width="9" stroke-linecap="round" stroke-linejoin="round" d="M-18 0v34h36V0"/></g>
 <!-- corn -->
 <g transform="translate(250 572) rotate(-8)"><rect x="-80" y="-24" width="150" height="48" rx="24" fill="#e9b949" fill-opacity=".18" stroke="#f6d77e" stroke-width="6"/><g fill="none" stroke="#f6d77e" stroke-width="4.5" stroke-linecap="round" stroke-linejoin="round" stroke-opacity=".7"><path d="M-46 -22v44M-18 -24v48M10 -24v48M38 -22v44"/><path d="M-74 0h140"/></g></g>
</g>
</svg>
